<svg width="200" height="35" viewBox="0 0 200 35" fill="none" xmlns="http://www.w3.org/2000/svg">
<path d="M142.856 34.1736C141.485 34.2274 140.221 34.0526 139.065 33.6494C137.936 33.273 137.009 32.7488 136.283 32.0767C135.584 31.4046 135.14 30.625 134.952 29.7379C134.764 28.8238 134.925 27.8964 135.436 26.9554C136.135 25.8263 137.533 25.4903 139.63 25.9473C141.216 26.2699 142.305 26.4447 142.896 26.4715C143.515 26.4984 144.039 26.4178 144.469 26.2296C146.431 25.5844 147.534 24.8854 147.776 24.1327C147.937 23.5681 147.587 22.9095 146.727 22.1568C146.378 21.8342 145.988 21.5116 145.558 21.189C145.128 20.8664 144.765 20.5438 144.469 20.2212C143.125 19.2265 142.063 18.0839 141.283 16.7935C140.53 15.4763 140.221 14.0514 140.356 12.5191C140.49 10.9867 140.746 9.72322 141.122 8.72853C141.498 7.70697 141.969 6.80638 142.533 6.02676C143.528 4.65571 144.818 3.54005 146.404 2.67978C148.233 1.73886 149.698 1.13399 150.8 0.865156C152.977 0.381256 155.182 0.340931 157.413 0.744181C158.166 0.878597 158.811 1.13399 159.349 1.51036C159.886 1.88672 160.424 2.27653 160.962 2.67978C161.903 3.6207 162.131 4.57506 161.647 5.54286C161.459 5.97299 161.163 6.32247 160.76 6.59131C160.357 6.86014 159.927 7.008 159.47 7.03488C159.524 7.76073 159.389 8.2984 159.067 8.64788C158.448 9.2662 157.373 9.66945 155.841 9.85763C153.636 9.69633 152.144 9.81731 151.364 10.2206C150.45 10.7045 150.114 11.7529 150.356 13.3659C150.41 13.7154 150.625 14.0783 151.002 14.4547C151.405 14.8311 151.862 15.2343 152.373 15.6644C152.91 16.0946 153.461 16.5785 154.026 17.1161C154.617 17.6538 155.128 18.2721 155.558 18.9711C157.064 21.4444 156.943 24.3343 155.195 27.641C153.905 30.1142 151.701 31.9692 148.582 33.2058C146.969 33.851 145.06 34.1736 142.856 34.1736Z" fill="white"/>
<path d="M175.469 4.57506C174.528 7.50534 173.654 10.1533 172.848 12.5191C172.068 14.8848 171.342 17.0624 170.67 19.0517C170.025 21.0411 169.42 22.8826 168.856 24.5763C168.291 26.243 167.767 27.8426 167.283 29.3749C167.014 31.1492 166.141 32.3993 164.662 33.1252C163.802 33.5284 162.78 33.73 161.597 33.73C160.414 33.73 159.527 33.5956 158.936 33.3268C158.344 33.0848 157.968 32.7219 157.807 32.238C157.619 31.7541 157.619 31.1761 157.807 30.504C157.968 29.8051 158.264 28.8642 158.694 27.6813C159.124 26.4715 159.662 24.8451 160.307 22.802C160.979 20.7588 161.678 18.6888 162.404 16.5919C164.205 11.3497 165.63 7.72041 166.678 5.70416C167.081 4.95142 167.485 4.45408 167.888 4.21213C168.291 3.9433 168.681 3.75511 169.057 3.64758C169.434 3.51316 169.783 3.36531 170.106 3.20401C170.428 3.04271 170.711 2.63946 170.953 1.99426C171.221 1.34906 171.692 0.905479 172.364 0.663529C173.063 0.421579 173.708 0.408138 174.3 0.623205C174.918 0.811389 175.375 1.24152 175.671 1.91361C175.993 2.55881 175.926 3.44596 175.469 4.57506Z" fill="white"/>
<path d="M191.324 11.7529C191.324 10.9464 191.042 10.5432 190.478 10.5432C190.262 10.5432 190.007 10.5969 189.711 10.7045C189.416 10.812 189.133 10.9061 188.865 10.9867C187.87 11.5244 187.09 12.1158 186.526 12.761C185.988 13.3794 185.437 14.0783 184.872 14.8579C184.308 15.6376 183.824 16.4709 183.421 17.3581C183.017 18.2452 182.708 19.0786 182.493 19.8582C181.714 22.7348 182.009 24.6704 183.38 25.665C183.945 26.0683 184.536 26.2699 185.155 26.2699C185.8 26.243 186.311 26.1086 186.687 25.8667C187.09 25.6247 187.48 25.3962 187.856 25.1811C188.233 24.9661 188.663 24.8182 189.147 24.7376C189.658 24.63 190.276 24.6972 191.002 24.9392C191.755 25.1543 192.158 25.45 192.212 25.8263C192.265 26.2027 192.265 26.5925 192.212 26.9958C192.158 27.399 192.144 27.7619 192.171 28.0845C192.225 28.4071 192.521 28.6088 193.058 28.6894C193.569 29.3346 193.247 30.1142 192.091 31.0283C191.795 31.2702 191.513 31.4987 191.244 31.7138C188.932 33.1924 186.472 34.0123 183.864 34.1736C182.224 34.2812 180.477 33.9854 178.622 33.2865C175.853 32.238 174.294 29.8857 173.944 26.2296C173.487 22.8423 173.917 19.334 175.235 15.7048C176.337 12.6401 178.004 9.80387 180.235 7.19618C182.251 4.80357 184.241 3.24433 186.203 2.51848C188.542 1.30873 191.069 0.838273 193.784 1.10711C196.661 1.48347 198.543 2.70667 199.43 4.77668C200.317 6.8467 200.169 9.33341 198.986 12.2368C198.583 13.2584 197.817 14.0649 196.688 14.6563C195.72 15.194 194.671 15.4628 193.542 15.4628C192.413 15.4628 191.687 15.1133 191.365 14.4144C191.042 13.6885 191.029 12.8014 191.324 11.7529Z" fill="white"/>
<path d="M63.2826 33.7704C62.7181 33.9317 62.1804 34.0123 61.6696 34.0123C61.1589 34.0392 60.6346 34.0661 60.097 34.093C59.5862 34.1199 58.8738 34.1333 57.9597 34.1333C57.0457 34.1333 55.6747 34.1064 53.8466 34.0526C53.4165 34.0795 52.9863 34.093 52.5562 34.093C52.126 34.093 51.7228 34.0123 51.3464 33.851C50.513 33.5015 49.9485 32.695 49.6528 31.4315C49.5184 30.8401 49.3705 30.4234 49.2092 30.1814C49.021 29.9395 48.8732 29.711 48.7656 29.4959C48.4968 29.0658 48.5237 28.3534 48.8463 27.3587C49.142 26.364 49.5318 25.1408 50.0157 23.6891C50.4996 22.2105 51.0507 20.6513 51.669 19.0114C53.1207 15.1133 54.4246 12.0217 55.5806 9.73666C56.0376 8.71509 56.4274 7.82794 56.75 7.07521C57.0995 6.32247 57.4086 5.67727 57.6775 5.13961C57.9463 4.57506 58.0807 4.27934 58.0807 4.25246C58.3495 3.23089 59.3846 2.37062 61.1857 1.67166C62.9332 0.945805 64.5193 0.757622 65.9441 1.10711C67.5302 1.51036 68.2292 2.55881 68.041 4.25246C67.6646 5.91922 67.1001 7.58599 66.3473 9.25276C65.6215 10.9195 64.7881 12.6669 63.8472 14.495C62.9063 16.3231 61.8847 18.2587 60.7825 20.3018C59.6803 22.3449 58.5915 24.5628 57.5162 26.9554C57.4893 27.063 57.543 27.1571 57.6775 27.2377C58.0269 27.2108 58.5108 27.1033 59.1292 26.9151C59.7744 26.7269 60.433 26.5656 61.1051 26.4312C61.8041 26.2699 62.4896 26.1893 63.1617 26.1893C63.8337 26.1893 64.3983 26.364 64.8553 26.7135C64.8284 27.1974 64.9494 27.5872 65.2182 27.8829L66.0247 28.6894C66.6968 29.3884 66.7506 30.3159 66.186 31.4718C65.6484 32.6009 64.6806 33.3671 63.2826 33.7704Z" fill="#E80451"/>
<path fill-rule="evenodd" clip-rule="evenodd" d="M31.7214 5.13961C33.415 3.20401 35.2969 1.99426 37.3669 1.51036C38.7917 1.16087 40.1359 1.21464 41.3994 1.67166C42.3941 0.623205 43.6845 0.246838 45.2706 0.542556C46.7223 0.811389 47.9589 1.63133 48.9805 3.00238C49.0343 3.19057 49.1418 3.47284 49.3031 3.84921C49.4913 4.22557 49.666 4.64227 49.8273 5.09928C51.0102 7.84138 51.1043 11.4438 50.1096 15.9064C48.873 21.4444 46.682 26.1355 43.5366 29.9798C42.5688 31.1627 41.48 32.1439 40.2703 32.9235C38.3347 34.4021 36.0227 35.0608 33.3344 34.8995C31.6676 34.8188 30.2697 34.4021 29.1406 33.6494C24.6511 31.4181 23.1859 26.7673 24.7451 19.6969C26.0355 13.8901 28.361 9.03769 31.7214 5.13961ZM32.165 26.7941L32.2053 26.5522C32.4472 24.2402 33.3344 21.646 34.8667 18.7695C35.5388 17.5328 36.4528 16.0408 37.6088 14.2934C38.7648 12.546 39.867 11.0002 40.9155 9.65601C41.1843 12.7745 40.8079 16.1618 39.7864 19.8179C38.7648 23.474 37.34 26.4312 35.5119 28.6894C35.2969 28.9583 35.0549 29.1868 34.7861 29.3749C34.5172 29.5631 34.2484 29.7647 33.9796 29.9798C33.7376 29.8723 33.4285 29.6034 33.0521 29.1733C32.6757 28.7163 32.4069 28.0711 32.2456 27.2377L32.165 26.7941Z" fill="#E80451"/>
<path d="M7.9797 34.1736C6.60865 34.2274 5.34513 34.0526 4.18915 33.6494C3.06005 33.273 2.13257 32.7488 1.40672 32.0767C0.707756 31.4046 0.264181 30.625 0.0759972 29.7379C-0.112186 28.8238 0.0491138 27.8964 0.559897 26.9554C1.25886 25.8263 2.6568 25.4903 4.7537 25.9473C6.33982 26.2699 7.42859 26.4447 8.02003 26.4715C8.63834 26.4984 9.16257 26.4178 9.5927 26.2296C11.5552 25.5844 12.6574 24.8854 12.8994 24.1327C13.0607 23.5681 12.7112 22.9095 11.8509 22.1568C11.5014 21.8342 11.1116 21.5116 10.6815 21.189C10.2513 20.8664 9.88842 20.5438 9.5927 20.2212C8.24854 19.2265 7.18664 18.0839 6.40703 16.7935C5.65429 15.4763 5.34513 14.0514 5.47955 12.5191C5.61397 10.9867 5.86936 9.72322 6.24573 8.72853C6.62209 7.70697 7.09255 6.80638 7.6571 6.02676C8.65179 4.65571 9.94219 3.54005 11.5283 2.67978C13.3564 1.73886 14.8215 1.13399 15.9237 0.865156C18.1013 0.381256 20.3057 0.340931 22.537 0.744181C23.2898 0.878597 23.935 1.13399 24.4726 1.51036C25.0103 1.88672 25.548 2.27653 26.0856 2.67978C27.0266 3.6207 27.2551 4.57506 26.7712 5.54286C26.583 5.97299 26.2873 6.32247 25.884 6.59131C25.4808 6.86014 25.0506 7.008 24.5936 7.03488C24.6474 7.76073 24.513 8.2984 24.1904 8.64788C23.572 9.2662 22.4967 9.66945 20.9644 9.85763C18.7599 9.69633 17.2679 9.81731 16.4883 10.2206C15.5742 10.7045 15.2382 11.7529 15.4802 13.3659C15.5339 13.7154 15.749 14.0783 16.1254 14.4547C16.5286 14.8311 16.9856 15.2343 17.4964 15.6644C18.0341 16.0946 18.5852 16.5785 19.1497 17.1161C19.7412 17.6538 20.252 18.2721 20.6821 18.9711C22.1876 21.4444 22.0666 24.3343 20.3192 27.641C19.0288 30.1142 16.8243 31.9692 13.7059 33.2058C12.0929 33.851 10.1841 34.1736 7.9797 34.1736Z" fill="#E80451"/>
<path d="M96.5234 2.39751C96.7922 3.12336 96.9401 3.60726 96.9669 3.84921C97.0207 4.35999 96.8325 4.79012 96.4024 5.13961C96.4024 5.16649 96.3755 5.20682 96.3218 5.26058C96.5637 6.5241 96.6175 7.70697 96.4831 8.80918C96.3486 9.9114 96.1739 10.9733 95.9588 11.9949C97.4105 9.52159 98.5665 7.70697 99.4268 6.55098C101.201 4.15837 102.854 2.45127 104.387 1.42971C104.898 1.13399 105.516 0.918922 106.242 0.784505C106.994 0.623205 107.707 0.596323 108.379 0.703856C109.051 0.81139 109.602 1.08022 110.032 1.51036C110.489 1.94049 110.691 2.58569 110.637 3.44596C109.884 8.68821 109.078 13.581 108.218 18.1243C107.357 22.6407 106.242 26.9554 104.871 31.0686V31.1492H104.83C104.508 32.117 103.701 32.8026 102.411 33.2058C101.147 33.5822 100.018 33.6091 99.0235 33.2865C97.8138 32.937 97.2627 32.2918 97.3702 31.3509L97.4105 30.4234V30.3427C97.5181 29.6975 97.5718 29.2674 97.5718 29.0523C97.5987 28.8104 97.6256 28.6356 97.6525 28.5281C97.7062 27.8291 97.8138 27.1839 97.9751 26.5925C98.1633 25.9742 98.2977 25.4769 98.3783 25.1005C98.459 24.7241 98.5396 24.3746 98.6203 24.052C98.7009 23.7026 98.7547 23.4337 98.7816 23.2455C97.76 24.6435 97.0342 25.4903 96.604 25.786C95.5287 26.5387 94.2786 26.8882 92.8538 26.8345C91.9667 26.7807 91.4559 26.5791 91.3214 26.2296C91.0526 25.4769 90.8644 25.0333 90.7569 24.8989C90.5956 24.6838 90.4612 24.3209 90.3537 23.8101C89.6547 26.9017 88.9692 29.0927 88.2971 30.3831C88.0282 30.8939 87.7594 31.3509 87.4906 31.7541C87.1142 32.6413 86.2539 33.2596 84.9098 33.6091C83.6462 33.9585 82.4365 33.9317 81.2805 33.5284C80.0976 33.1521 79.5331 32.48 79.5869 31.5122C79.6406 30.5444 79.8423 29.3346 80.1917 27.8829C80.5143 26.4043 80.9042 24.8451 81.3612 23.2052C82.7322 18.0167 83.7 14.6429 84.2646 13.0836C84.856 11.5244 85.3533 10.3012 85.7566 9.41406C86.7244 7.34404 87.5847 5.83857 88.3374 4.89766C89.1708 3.20401 90.5553 2.18244 92.4909 1.83296C94.0232 1.53724 95.3674 1.72542 96.5234 2.39751Z" fill="white"/>
<path fill-rule="evenodd" clip-rule="evenodd" d="M122.388 2.63946V2.7201V2.76043C122.415 2.76043 122.428 2.77387 122.428 2.80076V2.88141H122.469L122.711 3.52661C122.98 4.30622 122.281 6.72572 120.614 10.7851C118.839 15.1133 118.02 18.4872 118.154 20.9067C118.45 22.6272 119.888 21.2427 122.469 16.7532C124.512 13.2584 126.488 9.4275 128.397 5.26058C128.638 4.69603 128.894 4.11804 129.163 3.52661C129.432 2.90829 129.768 2.39751 130.171 1.99426C131.058 1.02646 132.133 0.771064 133.397 1.22808C133.827 0.717296 134.324 0.367813 134.889 0.179631C135.48 -0.00855368 136.031 -0.048879 136.542 0.0586546C137.08 0.166188 137.537 0.42158 137.913 0.82483C138.29 1.2012 138.491 1.71198 138.518 2.35718C138.599 2.89485 138.316 4.17181 137.671 6.18806C137.053 8.20431 136.475 10.0458 135.937 11.7126C135.4 13.3794 134.849 15.194 134.284 17.1565C132.913 21.8073 131.824 26.1893 131.018 30.3024C130.991 31.1627 130.614 31.8751 129.889 32.4396C129.19 33.0042 128.397 33.3671 127.509 33.5284C126.649 33.7166 125.829 33.6897 125.05 33.4478C124.109 33.1789 123.611 32.5068 123.558 31.4315C123.558 31.1358 123.544 30.8401 123.517 30.5444C123.571 31.4584 122.912 32.238 121.541 32.8832L120.493 33.4074C118.611 33.972 116.635 33.851 114.565 33.0445C113.597 32.6413 112.724 32.1036 111.944 31.4315C111.191 30.7325 110.667 29.9126 110.371 28.9717C109.43 25.9608 109.605 22.0089 110.895 17.1161C111.433 15.0192 112.092 12.9761 112.871 10.9867C113.651 8.99737 114.216 7.55911 114.565 6.67196C114.941 5.78481 115.21 5.17993 115.372 4.85733C115.533 4.50785 115.708 4.17181 115.896 3.84921C116.353 2.93517 116.743 2.31686 117.065 1.99426L117.549 1.55068C117.603 1.49691 117.657 1.47003 117.71 1.47003C117.764 1.44315 117.831 1.40282 117.912 1.34906C118.127 1.21464 118.356 1.12055 118.598 1.06678L119.162 0.945805H119.404C120.184 0.838272 120.856 0.999572 121.42 1.42971C121.42 1.45659 121.447 1.47003 121.501 1.47003L121.824 1.7523L121.945 1.87328L122.065 2.03458V2.07491C122.092 2.07491 122.106 2.08835 122.106 2.11523L122.146 2.15555V2.23621C122.173 2.23621 122.186 2.24965 122.186 2.27653V2.31686C122.213 2.34374 122.24 2.35718 122.267 2.35718V2.39751V2.43783C122.294 2.43783 122.307 2.45127 122.307 2.47816L122.348 2.51848V2.55881C122.348 2.58569 122.361 2.61257 122.388 2.63946ZM123.437 29.6975C123.437 29.5094 123.45 29.4018 123.477 29.3749V29.5362C123.45 29.5631 123.437 29.6169 123.437 29.6975Z" fill="white"/>
</svg>


