<svg width="12" height="12" viewBox="0 0 12 12" fill="none" xmlns="http://www.w3.org/2000/svg">
<path d="M6.75 0.75C6.75 0.335786 6.41422 0 6 0C5.58579 0 5.25 0.335786 5.25 0.75V5.24997H0.750015C0.335802 5.24997 1.52588e-05 5.58575 1.52588e-05 5.99997C1.52588e-05 6.41418 0.335802 6.74997 0.750015 6.74997H5.25L5.25002 11.25C5.25002 11.6642 5.5858 12 6.00002 12C6.41423 12 6.75002 11.6642 6.75002 11.25L6.75 6.74997H11.25C11.6642 6.74997 12 6.41418 12 5.99997C12 5.58575 11.6642 5.24997 11.25 5.24997H6.75V0.75Z" fill="white"/>
</svg>
