<svg width="16" height="16" viewBox="0 0 16 16" fill="none" xmlns="http://www.w3.org/2000/svg">
<path fill-rule="evenodd" clip-rule="evenodd" d="M12.0001 0C11.5989 0 11.2366 0.23973 11.0797 0.608945C10.9228 0.97816 11.0018 1.40539 11.2802 1.69415L12.0713 2.5145L9.29295 5.2929C8.90243 5.68342 8.90243 6.31659 9.29296 6.70711C9.68349 7.09763 10.3167 7.09763 10.7072 6.7071L13.4599 3.95439L14.2802 4.80507C14.5632 5.09859 14.9962 5.19085 15.3743 5.03823C15.7524 4.88561 16 4.51868 16 4.11091L16 0.999999C16 0.447715 15.5523 1.96634e-06 15 1.96634e-06L12.0001 0ZM3.55544 16C3.9599 16 4.32453 15.7564 4.47931 15.3827C4.63409 15.009 4.54854 14.5789 4.26254 14.2929L3.69194 13.7223L6.70711 10.7071C7.09763 10.3166 7.09763 9.68342 6.70711 9.2929C6.31659 8.90238 5.68342 8.90238 5.2929 9.2929L2.27773 12.3081L1.70709 11.7374C1.4211 11.4514 0.990975 11.3659 0.617299 11.5206C0.243623 11.6754 -1.87338e-05 12.0401 -1.52588e-05 12.4445L3.18253e-06 15C7.06004e-06 15.5523 0.447724 16 1.00001 16L3.55544 16Z" fill="#222222"/>
</svg>
